<?xml version="1.0" encoding="utf-8"?>
<!-- Generator: Adobe Illustrator 15.1.0, SVG Export Plug-In . SVG Version: 6.00 Build 0)  -->
<!DOCTYPE svg PUBLIC "-//W3C//DTD SVG 1.1//EN" "http://www.w3.org/Graphics/SVG/1.1/DTD/svg11.dtd">
<svg version="1.1" id="レイヤー_1" xmlns="http://www.w3.org/2000/svg" xmlns:xlink="http://www.w3.org/1999/xlink" x="0px"
	 y="0px" width="500px" height="500px" viewBox="0 0 500 500" enable-background="new 0 0 500 500" xml:space="preserve">
<rect display="none" fill="#262721" width="500" height="500"/>
<radialGradient id="SVGID_1_" cx="250" cy="250" r="180.3125" gradientUnits="userSpaceOnUse">
	<stop  offset="0" style="stop-color:#F8F8F1"/>
	<stop  offset="1" style="stop-color:#262721"/>
</radialGradient>
<path fill="url(#SVGID_1_)" d="M250,430.312L69.688,250L250,69.687L430.312,250L250,430.312z M76.759,250L250,423.242L423.242,250
	L250,76.758L76.759,250z"/>
<path display="none" fill="none" stroke="#6EC7DC" stroke-width="30" stroke-miterlimit="10" d="M299.333,320.525v-79.051
	c0-27.614-22.385-50-50-50c-27.614,0-50,22.385-50,50v79.051"/>
<path fill="none" stroke="#F29327" stroke-width="30" stroke-miterlimit="10" d="M249.333,191.475c-27.614,0-50,22.385-50,50v79.051
	"/>
<linearGradient id="SVGID_2_" gradientUnits="userSpaceOnUse" x1="108.0669" y1="239.3335" x2="391.9326" y2="239.3335">
	<stop  offset="0" style="stop-color:#927EB9"/>
	<stop  offset="1" style="stop-color:#6EC7DC"/>
</linearGradient>
<path fill="url(#SVGID_2_)" d="M367.5,332.068V139.334c0-8.155-5.543-15.158-13.479-17.032c-1.319-0.312-2.674-0.47-4.024-0.47
	c-6.669,0-12.665,3.708-15.649,9.676L250,300.202l-76.802-153.604h18.317l-41.72-72.265l-41.728,72.265H132.5v195.234h35V213.465
	l66.847,133.694c2.984,5.967,8.981,9.674,15.653,9.674c6.672,0,12.67-3.707,15.652-9.674L332.5,213.464v118.604h-24.016
	l41.721,72.265l41.728-72.265H367.5z"/>
<g>
	<g>
		<line fill="none" stroke="#F8F8F1" stroke-width="30" stroke-miterlimit="10" x1="150" y1="339.333" x2="150" y2="133.156"/>
		<g>
			<polygon fill="#F8F8F1" points="187.185,144.099 149.795,79.334 112.397,144.099 			"/>
		</g>
	</g>
</g>
<g>
	<g>
		<polyline fill="none" stroke="#F8F8F1" stroke-width="30" stroke-linejoin="round" points="150,139.334 250,339.333 350,139.334 
			350,345.511 		"/>
		<g>
			<polygon fill="#F8F8F1" points="312.814,334.568 350.205,399.333 387.603,334.568 			"/>
		</g>
	</g>
</g>
<path fill="none" stroke="#F29327" stroke-width="30" stroke-linecap="round" stroke-miterlimit="10" d="M299.333,320.525v-79.051
	c0-27.614-22.385-50-50-50"/>
<g>
	<text transform="matrix(1 0 0 1 135.1665 399.333)" font-family="'Athens-Inline'" font-size="70">Lo-der</text>
	<g>
		<radialGradient id="SVGID_3_" cx="251.4727" cy="376.5107" r="79.8896" gradientUnits="userSpaceOnUse">
			<stop  offset="0" style="stop-color:#F29327"/>
			<stop  offset="1" style="stop-color:#E0B973"/>
		</radialGradient>
		<path fill="url(#SVGID_3_)" d="M148.818,353.269v44.664h21.212v1.4h-29.123v-46.064H148.818z M147.418,397.933v-43.265h-5.111
			v43.265H147.418z"/>
		<radialGradient id="SVGID_4_" cx="251.4727" cy="376.5107" r="79.8896" gradientUnits="userSpaceOnUse">
			<stop  offset="0" style="stop-color:#F29327"/>
			<stop  offset="1" style="stop-color:#E0B973"/>
		</radialGradient>
		<path fill="url(#SVGID_4_)" d="M207.83,370.35c3.291,3.291,5.041,7.491,5.041,12.182s-1.75,8.891-5.041,12.182
			c-3.29,3.29-7.631,5.04-12.181,5.04s-8.821-1.75-12.181-5.04c-3.291-3.36-5.041-7.631-5.041-12.182s1.75-8.891,5.041-12.182
			c3.36-3.29,7.631-5.04,12.181-5.04S204.54,367.06,207.83,370.35z M188.508,396.673c-2.45-2.87-3.22-6.65-3.22-14.142
			s0.91-11.341,3.22-14.142c-1.4,0.771-2.73,1.75-4.061,2.94c-3.01,3.011-4.621,7.001-4.621,11.201s1.61,8.19,4.621,11.201
			C185.567,394.853,186.897,395.833,188.508,396.673z M201.879,395.623c1.331-1.751,2.101-3.641,2.38-5.741
			c0.21-2.03,0.35-4.48,0.35-7.351c0-5.601-0.21-9.661-2.8-13.161c-1.33-1.75-3.36-2.591-6.161-2.591s-4.831,0.841-6.161,2.591
			s-2.1,3.71-2.38,5.811c-0.28,2.1-0.42,4.551-0.42,7.351c0,5.601,0.21,9.591,2.8,13.092c1.33,1.75,3.36,2.66,6.161,2.66
			S200.549,397.373,201.879,395.623z M211.47,382.531c0-4.2-1.61-8.19-4.621-11.201c-1.12-1.12-2.45-2.101-3.99-2.94
			c2.45,2.87,3.15,6.511,3.15,14.142c0,7.491-0.91,11.341-3.22,14.142c1.61-0.84,2.94-1.82,4.061-2.94
			C209.86,390.722,211.47,386.731,211.47,382.531z"/>
		<radialGradient id="SVGID_5_" cx="251.4727" cy="376.5107" r="79.8896" gradientUnits="userSpaceOnUse">
			<stop  offset="0" style="stop-color:#F29327"/>
			<stop  offset="1" style="stop-color:#E0B973"/>
		</radialGradient>
		<path fill="url(#SVGID_5_)" d="M221.266,383.161v-3.851h25.763v3.851H221.266z M222.667,380.711v1.05h22.962v-1.05H222.667z"/>
		<radialGradient id="SVGID_6_" cx="251.4727" cy="376.5107" r="79.8896" gradientUnits="userSpaceOnUse">
			<stop  offset="0" style="stop-color:#F29327"/>
			<stop  offset="1" style="stop-color:#E0B973"/>
		</radialGradient>
		<path fill="url(#SVGID_6_)" d="M281.959,397.022c-2.871,1.82-5.951,2.73-9.312,2.73c-4.55,0-8.821-1.75-12.181-5.04
			c-3.291-3.36-5.041-7.631-5.041-12.182s1.75-8.891,5.041-12.182c3.289-3.29,7.49-5.04,12.181-5.04c3.501,0,6.581,0.91,9.312,2.73
			v-14.771h7.91v46.064h-7.91V397.022z M265.437,396.603c-2.45-2.8-3.149-6.58-3.149-14.071c0-4.971,0.35-7.98,1.189-10.431
			c0.49-1.471,1.189-2.73,2.1-3.711c-1.47,0.63-2.8,1.61-4.13,2.94c-3.011,3.011-4.62,7.001-4.62,11.201
			c0,2.03,0.42,4.061,1.189,6.021c0.771,1.891,1.891,3.57,3.431,5.181C262.637,394.923,263.967,395.833,265.437,396.603z
			 M281.959,395.202V369.79c-2.73-2.03-5.811-3.011-9.312-3.011c-2.8,0-4.831,0.841-6.161,2.591s-2.1,3.71-2.38,5.811
			c-0.28,2.1-0.42,4.551-0.42,7.351c0,5.601,0.21,9.591,2.8,13.092c1.33,1.75,3.361,2.66,6.161,2.66
			C276.148,398.283,279.229,397.232,281.959,395.202z M283.358,354.668v43.265h5.11v-43.265H283.358z"/>
		<radialGradient id="SVGID_7_" cx="251.4727" cy="376.5107" r="79.8896" gradientUnits="userSpaceOnUse">
			<stop  offset="0" style="stop-color:#F29327"/>
			<stop  offset="1" style="stop-color:#E0B973"/>
		</radialGradient>
		<path fill="url(#SVGID_7_)" d="M304.145,394.713c-3.289-3.291-5.109-7.631-5.109-12.182s1.75-8.891,4.9-12.182
			c3.15-3.29,7.42-5.04,11.971-5.04s8.82,1.75,11.832,5.04c3.01,3.291,4.689,7.631,4.689,12.182v0.771h-25.133
			c0.07,5.32,0.42,9.311,3.011,12.531c1.33,1.609,3.29,2.45,5.95,2.45c5.391,0,10.222-2.66,13.232-7.141l1.189,0.84
			c-3.15,4.83-8.541,7.771-14.422,7.771C311.706,399.753,307.436,398.003,304.145,394.713z M300.435,382.531
			c0,4.2,1.681,8.19,4.69,11.201c1.19,1.19,2.59,2.17,4.061,2.94c-0.77-0.84-1.471-1.96-1.96-3.431
			c-1.12-2.87-1.261-5.53-1.331-9.94v-1.541c0.07-4.41,0.281-6.86,1.191-9.73c0.56-1.61,1.33-2.87,2.24-3.851
			c-1.611,0.771-3.081,1.82-4.411,3.15C302.045,374.341,300.435,378.261,300.435,382.531z M307.855,374.83
			c-0.35,2.03-0.49,4.341-0.561,7.001h16.872c0-5.11-0.28-9.101-2.729-12.392c-1.261-1.609-3.15-2.52-5.672-2.66
			C310.726,367.06,308.416,370.91,307.855,374.83z M321.927,367.899c1.05,1.051,1.89,2.45,2.45,4.131
			c0.84,2.521,1.19,5.32,1.19,9.871h5.46c-0.069-3.99-1.68-7.771-4.27-10.571C325.428,369.86,323.816,368.74,321.927,367.899z"/>
		<radialGradient id="SVGID_8_" cx="251.4727" cy="376.5107" r="79.8896" gradientUnits="userSpaceOnUse">
			<stop  offset="0" style="stop-color:#F29327"/>
			<stop  offset="1" style="stop-color:#E0B973"/>
		</radialGradient>
		<path fill="url(#SVGID_8_)" d="M349.506,368.25c2.029-1.96,4.48-2.94,7.279-2.94c2.031,0,3.361,0.35,5.252,1.12l-0.561,1.33
			c-1.541-0.63-3.08-0.98-4.691-0.98c-3.289,0-5.6,2.381-6.439,4.551c-0.561,1.61-0.84,3.78-0.84,6.511v21.492h-7.912v-33.604h7.912
			V368.25z M348.105,397.933V367.13h-5.111v30.803H348.105z"/>
	</g>
</g>
</svg>
