<?xml version="1.0" encoding="utf-8"?>
<!-- Generator: Adobe Illustrator 15.1.0, SVG Export Plug-In  -->
<!DOCTYPE svg PUBLIC "-//W3C//DTD SVG 1.1//EN" "http://www.w3.org/Graphics/SVG/1.1/DTD/svg11.dtd" [
	<!ENTITY ns_flows "http://ns.adobe.com/Flows/1.0/">
]>
<svg version="1.1"
	 xmlns="http://www.w3.org/2000/svg" xmlns:xlink="http://www.w3.org/1999/xlink" xmlns:a="http://ns.adobe.com/AdobeSVGViewerExtensions/3.0/"
	 x="0px" y="0px" width="250px" height="250px" viewBox="0 0 250 250" overflow="visible" enable-background="new 0 0 250 250"
	 xml:space="preserve">
<defs>
</defs>
<rect display="none" fill="#262721" width="250" height="250"/>
<g display="none">
	<path display="inline" fill="none" stroke="#F8F8F1" stroke-width="8" stroke-linecap="round" stroke-miterlimit="10" d="
		M116.676,143.028V215c0,2.75-2.25,5-5,5H55c-2.75,0-5-2.25-5-5v-69.178c0-2.75,0-7.25,0-10v-4.463c0-2.75,2.25-5,5-5h45.007"/>
</g>
<polygon display="none" fill="none" stroke="#F8F8F1" stroke-width="8" stroke-linecap="round" stroke-linejoin="round" stroke-miterlimit="10" points="
	116.676,143.028 100.007,143.028 100.007,126.359 "/>
<g display="none">
	<g display="inline">
		
			<line fill="none" stroke="#F8F8F1" stroke-width="8" stroke-linecap="round" stroke-linejoin="round" x1="200.332" y1="46.669" x2="200.332" y2="52.669"/>
		
			<path fill="none" stroke="#F8F8F1" stroke-width="8" stroke-linecap="round" stroke-linejoin="round" stroke-dasharray="11.6873,11.6873" d="
			M200.332,64.356v54.284c0,2.75-2.25,5-5,5h-56.676c-2.75,0-5-2.25-5-5V49.463c0-2.75,0-7.25,0-10V35c0-2.75,2.25-5,5-5h33.163"/>
		
			<line fill="none" stroke="#F8F8F1" stroke-width="8" stroke-linecap="round" stroke-linejoin="round" x1="177.663" y1="30" x2="183.663" y2="30"/>
	</g>
</g>
<g display="none">
	<g display="inline">
		<polyline fill="none" stroke="#F8F8F1" stroke-width="8" stroke-linecap="round" stroke-linejoin="round" points="196.09,42.427 
			200.332,46.669 194.332,46.669 		"/>
		<polyline fill="none" stroke="#F8F8F1" stroke-width="8" stroke-linecap="round" stroke-linejoin="round" points="189.663,46.669 
			183.663,46.669 183.663,40.669 		"/>
		<polyline fill="none" stroke="#F8F8F1" stroke-width="8" stroke-linecap="round" stroke-linejoin="round" points="183.663,36 
			183.663,30 187.905,34.242 		"/>
	</g>
</g>
<g display="none">
	<g display="inline">
		<polyline fill="none" stroke="#F8F8F1" stroke-width="8" stroke-linecap="round" stroke-linejoin="round" points="105.34,59.431 
			80,59.431 80,92.855 		"/>
		<g>
			<polygon fill="#F8F8F1" points="69.631,84.991 80,89.396 90.369,84.991 80,109.57 			"/>
		</g>
	</g>
</g>
<g display="none">
	<g display="inline">
		<polyline fill="none" stroke="#F8F8F1" stroke-width="8" stroke-linecap="round" stroke-linejoin="round" points="144.66,190.569 
			170,190.569 170,157.145 		"/>
		<g>
			<polygon fill="#F8F8F1" points="180.369,165.009 170,160.604 159.631,165.009 170,140.43 			"/>
		</g>
	</g>
</g>
<radialGradient id="SVGID_1_" cx="83.3477" cy="173.1797" r="44.5957" gradientUnits="userSpaceOnUse">
	<stop  offset="0" style="stop-color:#262721"/>
	<stop  offset="1" style="stop-color:#F8F8F1"/>
</radialGradient>
<path fill="url(#SVGID_1_)" stroke="#927EB9" stroke-width="2" d="M120.695,143.028c0-0.817-0.262-1.567-0.684-2.201
	c-0.01-0.016-0.019-0.031-0.029-0.047c-0.123-0.181-0.264-0.346-0.415-0.504c-0.037-0.039-0.073-0.079-0.111-0.116
	c-0.063-0.061-0.114-0.133-0.181-0.188l-16.438-16.438c-0.005-0.005-0.011-0.009-0.016-0.014c-0.162-0.161-0.339-0.303-0.522-0.432
	c-0.06-0.042-0.122-0.077-0.184-0.115c-0.14-0.087-0.283-0.166-0.432-0.234c-0.071-0.033-0.143-0.066-0.217-0.096
	c-0.186-0.072-0.376-0.132-0.569-0.177c-0.035-0.008-0.067-0.021-0.103-0.027c-0.232-0.047-0.47-0.067-0.708-0.072
	c-0.027,0-0.054-0.008-0.081-0.008H55c-4.963,0-9,4.037-9,9V215c0,4.963,4.037,9,9,9h56.676c4.963,0,9-4.037,9-9v-71.778
	C120.679,143.156,120.695,143.095,120.695,143.028z M104.007,136.017l3.012,3.012h-3.012V136.017z M111.676,216H55
	c-0.542,0-1-0.458-1-1v-83.641c0-0.542,0.458-1,1-1h41.007v12.669c0,2.209,1.791,4,4,4h12.669V215
	C112.676,215.542,112.218,216,111.676,216z"/>
<g>
	<g>
		<path fill="#F8F8F1" d="M204.324,46.59c-0.005-0.239-0.024-0.478-0.072-0.712c-0.006-0.031-0.019-0.061-0.025-0.093
			c-0.045-0.197-0.105-0.391-0.18-0.579c-0.028-0.073-0.061-0.143-0.094-0.213c-0.069-0.149-0.148-0.294-0.235-0.435
			c-0.039-0.062-0.074-0.123-0.115-0.182c-0.129-0.185-0.271-0.361-0.432-0.523c-0.005-0.005-0.009-0.011-0.014-0.016l-4.239-4.239
			c-1.561-1.562-4.096-1.562-5.656,0c-1.003,1.003-1.362,2.405-1.077,3.695c-0.065,0.042-0.126,0.092-0.188,0.138
			c-0.658-0.476-1.46-0.763-2.333-0.763h-2v-2c0-0.873-0.287-1.675-0.763-2.333c0.046-0.062,0.096-0.123,0.138-0.188
			c1.289,0.288,2.693-0.073,3.695-1.077c1.562-1.562,1.562-4.095,0-5.656l-4.239-4.239c-0.005-0.005-0.011-0.009-0.016-0.014
			c-0.163-0.162-0.34-0.304-0.523-0.433c-0.059-0.041-0.12-0.075-0.18-0.113c-0.142-0.088-0.287-0.168-0.438-0.237
			c-0.07-0.032-0.139-0.064-0.211-0.093c-0.189-0.074-0.383-0.135-0.581-0.18c-0.031-0.008-0.061-0.02-0.092-0.025
			c-0.234-0.048-0.473-0.067-0.712-0.072c-0.027,0-0.052-0.008-0.079-0.008h-6c-2.209,0-4,1.791-4,4s1.791,4,4,4h2v2
			c0,0.874,0.288,1.677,0.764,2.334c-0.476,0.658-0.764,1.461-0.764,2.335v6c0,2.209,1.791,4,4,4h6c0.874,0,1.677-0.288,2.335-0.764
			c0.657,0.476,1.46,0.764,2.334,0.764h2v2c0,2.209,1.791,4,4,4s4-1.791,4-4v-6C204.332,46.642,204.324,46.617,204.324,46.59z"/>
		<path fill="#F8F8F1" d="M133.656,109.058c2.209,0,4-1.791,4-4V93.37c0-2.209-1.791-4-4-4s-4,1.791-4,4v11.688
			C129.656,107.267,131.447,109.058,133.656,109.058z"/>
		<path fill="#F8F8F1" d="M142.564,26h-3.908c-4.892,0-8.929,3.979-8.999,8.869c-0.031,2.209,1.733,4.025,3.942,4.058
			c0.02,0,0.039,0,0.059,0c2.183,0,3.967-1.753,3.999-3.942c0.007-0.533,0.465-0.984,0.999-0.984h3.908c2.209,0,4-1.791,4-4
			S144.773,26,142.564,26z"/>
		<path fill="#F8F8F1" d="M140.596,119.641h-1.939c-0.542,0-1-0.458-1-1v-1.896c0-2.209-1.791-4-4-4s-4,1.791-4,4v1.896
			c0,4.963,4.037,9,9,9h1.939c2.209,0,4-1.791,4-4S142.805,119.641,140.596,119.641z"/>
		<path fill="#F8F8F1" d="M133.656,62.309c2.209,0,4-1.791,4-4V46.619c0-2.209-1.791-4-4-4s-4,1.791-4,4v11.689
			C129.656,60.518,131.447,62.309,133.656,62.309z"/>
		<path fill="#F8F8F1" d="M133.656,85.683c2.209,0,4-1.791,4-4V69.995c0-2.209-1.791-4-4-4s-4,1.791-4,4v11.688
			C129.656,83.892,131.447,85.683,133.656,85.683z"/>
		<path fill="#F8F8F1" d="M163.97,119.641h-11.687c-2.209,0-4,1.791-4,4s1.791,4,4,4h11.687c2.209,0,4-1.791,4-4
			S166.179,119.641,163.97,119.641z"/>
		<path fill="#F8F8F1" d="M200.332,83.731c-2.209,0-4,1.791-4,4v11.687c0,2.209,1.791,4,4,4s4-1.791,4-4V87.731
			C204.332,85.522,202.541,83.731,200.332,83.731z"/>
		<path fill="#F8F8F1" d="M200.332,60.356c-2.209,0-4,1.791-4,4v11.688c0,2.209,1.791,4,4,4s4-1.791,4-4V64.356
			C204.332,62.147,202.541,60.356,200.332,60.356z"/>
		<path fill="#F8F8F1" d="M200.332,107.105c-2.209,0-4,1.791-4,4v7.535c0,0.376-0.208,0.623-0.332,0.736
			c-1.63,1.491-1.742,4.021-0.251,5.651c0.789,0.862,1.869,1.3,2.952,1.3c0.965,0,1.932-0.347,2.699-1.049
			c1.863-1.705,2.932-4.125,2.932-6.639v-7.535C204.332,108.896,202.541,107.105,200.332,107.105z"/>
		<path fill="#F8F8F1" d="M187.345,119.641h-11.688c-2.209,0-4,1.791-4,4s1.791,4,4,4h11.688c2.209,0,4-1.791,4-4
			S189.554,119.641,187.345,119.641z"/>
		<path fill="#F8F8F1" d="M165.939,26h-11.688c-2.209,0-4,1.791-4,4s1.791,4,4,4h11.688c2.209,0,4-1.791,4-4S168.148,26,165.939,26z
			"/>
	</g>
	<g>
		<radialGradient id="SVGID_2_" cx="166.9941" cy="76.8203" r="44.5916" gradientUnits="userSpaceOnUse">
			<stop  offset="0" style="stop-color:#262721"/>
			<stop  offset="1" style="stop-color:#F8F8F1"/>
		</radialGradient>
		<path fill="url(#SVGID_2_)" d="M204.324,46.59c-0.005-0.239-0.024-0.478-0.072-0.712c-0.006-0.031-0.019-0.061-0.025-0.093
			c-0.045-0.197-0.105-0.391-0.18-0.579c-0.028-0.073-0.061-0.143-0.094-0.213c-0.069-0.149-0.148-0.294-0.235-0.435
			c-0.039-0.062-0.074-0.123-0.115-0.182c-0.129-0.185-0.271-0.361-0.432-0.523c-0.005-0.005-0.009-0.011-0.014-0.016l-4.239-4.239
			c-1.561-1.562-4.096-1.562-5.656,0c-1.003,1.003-1.362,2.405-1.077,3.695c-0.065,0.042-0.126,0.092-0.188,0.138
			c-0.658-0.476-1.46-0.763-2.333-0.763h-2v-2c0-0.873-0.287-1.675-0.763-2.333c0.046-0.062,0.096-0.123,0.138-0.188
			c1.289,0.288,2.693-0.073,3.695-1.077c1.562-1.562,1.562-4.095,0-5.656l-4.239-4.239c-0.005-0.005-0.011-0.009-0.016-0.014
			c-0.163-0.162-0.34-0.304-0.523-0.433c-0.059-0.041-0.12-0.075-0.18-0.113c-0.142-0.088-0.287-0.168-0.438-0.237
			c-0.07-0.032-0.139-0.064-0.211-0.093c-0.189-0.074-0.383-0.135-0.581-0.18c-0.031-0.008-0.061-0.02-0.092-0.025
			c-0.234-0.048-0.473-0.067-0.712-0.072c-0.027,0-0.052-0.008-0.079-0.008h-6c-2.209,0-4,1.791-4,4s1.791,4,4,4h2v2
			c0,0.874,0.288,1.677,0.764,2.334c-0.476,0.658-0.764,1.461-0.764,2.335v6c0,2.209,1.791,4,4,4h6c0.874,0,1.677-0.288,2.335-0.764
			c0.657,0.476,1.46,0.764,2.334,0.764h2v2c0,2.209,1.791,4,4,4s4-1.791,4-4v-6C204.332,46.642,204.324,46.617,204.324,46.59z"/>
		<radialGradient id="SVGID_3_" cx="166.9941" cy="76.8203" r="44.5916" gradientUnits="userSpaceOnUse">
			<stop  offset="0" style="stop-color:#262721"/>
			<stop  offset="1" style="stop-color:#F8F8F1"/>
		</radialGradient>
		<path fill="url(#SVGID_3_)" d="M133.656,109.058c2.209,0,4-1.791,4-4V93.37c0-2.209-1.791-4-4-4s-4,1.791-4,4v11.688
			C129.656,107.267,131.447,109.058,133.656,109.058z"/>
		<radialGradient id="SVGID_4_" cx="166.9941" cy="76.8203" r="44.5916" gradientUnits="userSpaceOnUse">
			<stop  offset="0" style="stop-color:#262721"/>
			<stop  offset="1" style="stop-color:#F8F8F1"/>
		</radialGradient>
		<path fill="url(#SVGID_4_)" d="M142.564,26h-3.908c-4.892,0-8.929,3.979-8.999,8.869c-0.031,2.209,1.733,4.025,3.942,4.058
			c0.02,0,0.039,0,0.059,0c2.183,0,3.967-1.753,3.999-3.942c0.007-0.533,0.465-0.984,0.999-0.984h3.908c2.209,0,4-1.791,4-4
			S144.773,26,142.564,26z"/>
		<radialGradient id="SVGID_5_" cx="166.9941" cy="76.8203" r="44.5916" gradientUnits="userSpaceOnUse">
			<stop  offset="0" style="stop-color:#262721"/>
			<stop  offset="1" style="stop-color:#F8F8F1"/>
		</radialGradient>
		<path fill="url(#SVGID_5_)" d="M140.596,119.641h-1.939c-0.542,0-1-0.458-1-1v-1.896c0-2.209-1.791-4-4-4s-4,1.791-4,4v1.896
			c0,4.963,4.037,9,9,9h1.939c2.209,0,4-1.791,4-4S142.805,119.641,140.596,119.641z"/>
		<radialGradient id="SVGID_6_" cx="166.9941" cy="76.8203" r="44.5916" gradientUnits="userSpaceOnUse">
			<stop  offset="0" style="stop-color:#262721"/>
			<stop  offset="1" style="stop-color:#F8F8F1"/>
		</radialGradient>
		<path fill="url(#SVGID_6_)" d="M133.656,62.309c2.209,0,4-1.791,4-4V46.619c0-2.209-1.791-4-4-4s-4,1.791-4,4v11.689
			C129.656,60.518,131.447,62.309,133.656,62.309z"/>
		<radialGradient id="SVGID_7_" cx="166.9941" cy="76.8203" r="44.5916" gradientUnits="userSpaceOnUse">
			<stop  offset="0" style="stop-color:#262721"/>
			<stop  offset="1" style="stop-color:#F8F8F1"/>
		</radialGradient>
		<path fill="url(#SVGID_7_)" d="M133.656,85.683c2.209,0,4-1.791,4-4V69.995c0-2.209-1.791-4-4-4s-4,1.791-4,4v11.688
			C129.656,83.892,131.447,85.683,133.656,85.683z"/>
		<radialGradient id="SVGID_8_" cx="166.9941" cy="76.8203" r="44.5916" gradientUnits="userSpaceOnUse">
			<stop  offset="0" style="stop-color:#262721"/>
			<stop  offset="1" style="stop-color:#F8F8F1"/>
		</radialGradient>
		<path fill="url(#SVGID_8_)" d="M163.97,119.641h-11.687c-2.209,0-4,1.791-4,4s1.791,4,4,4h11.687c2.209,0,4-1.791,4-4
			S166.179,119.641,163.97,119.641z"/>
		<radialGradient id="SVGID_9_" cx="166.9941" cy="76.8203" r="44.5916" gradientUnits="userSpaceOnUse">
			<stop  offset="0" style="stop-color:#262721"/>
			<stop  offset="1" style="stop-color:#F8F8F1"/>
		</radialGradient>
		<path fill="url(#SVGID_9_)" d="M200.332,83.731c-2.209,0-4,1.791-4,4v11.687c0,2.209,1.791,4,4,4s4-1.791,4-4V87.731
			C204.332,85.522,202.541,83.731,200.332,83.731z"/>
		<radialGradient id="SVGID_10_" cx="166.9941" cy="76.8203" r="44.5916" gradientUnits="userSpaceOnUse">
			<stop  offset="0" style="stop-color:#262721"/>
			<stop  offset="1" style="stop-color:#F8F8F1"/>
		</radialGradient>
		<path fill="url(#SVGID_10_)" d="M200.332,60.356c-2.209,0-4,1.791-4,4v11.688c0,2.209,1.791,4,4,4s4-1.791,4-4V64.356
			C204.332,62.147,202.541,60.356,200.332,60.356z"/>
		<radialGradient id="SVGID_11_" cx="166.9941" cy="76.8203" r="44.5916" gradientUnits="userSpaceOnUse">
			<stop  offset="0" style="stop-color:#262721"/>
			<stop  offset="1" style="stop-color:#F8F8F1"/>
		</radialGradient>
		<path fill="url(#SVGID_11_)" d="M200.332,107.105c-2.209,0-4,1.791-4,4v7.535c0,0.376-0.208,0.623-0.332,0.736
			c-1.63,1.491-1.742,4.021-0.251,5.651c0.789,0.862,1.869,1.3,2.952,1.3c0.965,0,1.932-0.347,2.699-1.049
			c1.863-1.705,2.932-4.125,2.932-6.639v-7.535C204.332,108.896,202.541,107.105,200.332,107.105z"/>
		<radialGradient id="SVGID_12_" cx="166.9941" cy="76.8203" r="44.5916" gradientUnits="userSpaceOnUse">
			<stop  offset="0" style="stop-color:#262721"/>
			<stop  offset="1" style="stop-color:#F8F8F1"/>
		</radialGradient>
		<path fill="url(#SVGID_12_)" d="M187.345,119.641h-11.688c-2.209,0-4,1.791-4,4s1.791,4,4,4h11.688c2.209,0,4-1.791,4-4
			S189.554,119.641,187.345,119.641z"/>
		<radialGradient id="SVGID_13_" cx="166.9941" cy="76.8203" r="44.5916" gradientUnits="userSpaceOnUse">
			<stop  offset="0" style="stop-color:#262721"/>
			<stop  offset="1" style="stop-color:#F8F8F1"/>
		</radialGradient>
		<path fill="url(#SVGID_13_)" d="M165.939,26h-11.688c-2.209,0-4,1.791-4,4s1.791,4,4,4h11.688c2.209,0,4-1.791,4-4
			S168.148,26,165.939,26z"/>
	</g>
	<g>
		<path fill="none" stroke="#927EB9" stroke-width="2" d="M204.324,46.59c-0.005-0.239-0.024-0.478-0.072-0.712
			c-0.006-0.031-0.019-0.061-0.025-0.093c-0.045-0.197-0.105-0.391-0.18-0.579c-0.028-0.073-0.061-0.143-0.094-0.213
			c-0.069-0.149-0.148-0.294-0.235-0.435c-0.039-0.062-0.074-0.123-0.115-0.182c-0.129-0.185-0.271-0.361-0.432-0.523
			c-0.005-0.005-0.009-0.011-0.014-0.016l-4.239-4.239c-1.561-1.562-4.096-1.562-5.656,0c-1.003,1.003-1.362,2.405-1.077,3.695
			c-0.065,0.042-0.126,0.092-0.188,0.138c-0.658-0.476-1.46-0.763-2.333-0.763h-2v-2c0-0.873-0.287-1.675-0.763-2.333
			c0.046-0.062,0.096-0.123,0.138-0.188c1.289,0.288,2.693-0.073,3.695-1.077c1.562-1.562,1.562-4.095,0-5.656l-4.239-4.239
			c-0.005-0.005-0.011-0.009-0.016-0.014c-0.163-0.162-0.34-0.304-0.523-0.433c-0.059-0.041-0.12-0.075-0.18-0.113
			c-0.142-0.088-0.287-0.168-0.438-0.237c-0.07-0.032-0.139-0.064-0.211-0.093c-0.189-0.074-0.383-0.135-0.581-0.18
			c-0.031-0.008-0.061-0.02-0.092-0.025c-0.234-0.048-0.473-0.067-0.712-0.072c-0.027,0-0.052-0.008-0.079-0.008h-6
			c-2.209,0-4,1.791-4,4s1.791,4,4,4h2v2c0,0.874,0.288,1.677,0.764,2.334c-0.476,0.658-0.764,1.461-0.764,2.335v6
			c0,2.209,1.791,4,4,4h6c0.874,0,1.677-0.288,2.335-0.764c0.657,0.476,1.46,0.764,2.334,0.764h2v2c0,2.209,1.791,4,4,4s4-1.791,4-4
			v-6C204.332,46.642,204.324,46.617,204.324,46.59z"/>
		<path fill="none" stroke="#927EB9" stroke-width="2" d="M133.656,109.058c2.209,0,4-1.791,4-4V93.37c0-2.209-1.791-4-4-4
			s-4,1.791-4,4v11.688C129.656,107.267,131.447,109.058,133.656,109.058z"/>
		<path fill="none" stroke="#927EB9" stroke-width="2" d="M142.564,26h-3.908c-4.892,0-8.929,3.979-8.999,8.869
			c-0.031,2.209,1.733,4.025,3.942,4.058c0.02,0,0.039,0,0.059,0c2.183,0,3.967-1.753,3.999-3.942
			c0.007-0.533,0.465-0.984,0.999-0.984h3.908c2.209,0,4-1.791,4-4S144.773,26,142.564,26z"/>
		<path fill="none" stroke="#927EB9" stroke-width="2" d="M140.596,119.641h-1.939c-0.542,0-1-0.458-1-1v-1.896c0-2.209-1.791-4-4-4
			s-4,1.791-4,4v1.896c0,4.963,4.037,9,9,9h1.939c2.209,0,4-1.791,4-4S142.805,119.641,140.596,119.641z"/>
		<path fill="none" stroke="#927EB9" stroke-width="2" d="M133.656,62.309c2.209,0,4-1.791,4-4V46.619c0-2.209-1.791-4-4-4
			s-4,1.791-4,4v11.689C129.656,60.518,131.447,62.309,133.656,62.309z"/>
		<path fill="none" stroke="#927EB9" stroke-width="2" d="M133.656,85.683c2.209,0,4-1.791,4-4V69.995c0-2.209-1.791-4-4-4
			s-4,1.791-4,4v11.688C129.656,83.892,131.447,85.683,133.656,85.683z"/>
		<path fill="none" stroke="#927EB9" stroke-width="2" d="M163.97,119.641h-11.687c-2.209,0-4,1.791-4,4s1.791,4,4,4h11.687
			c2.209,0,4-1.791,4-4S166.179,119.641,163.97,119.641z"/>
		<path fill="none" stroke="#927EB9" stroke-width="2" d="M200.332,83.731c-2.209,0-4,1.791-4,4v11.687c0,2.209,1.791,4,4,4
			s4-1.791,4-4V87.731C204.332,85.522,202.541,83.731,200.332,83.731z"/>
		<path fill="none" stroke="#927EB9" stroke-width="2" d="M200.332,60.356c-2.209,0-4,1.791-4,4v11.688c0,2.209,1.791,4,4,4
			s4-1.791,4-4V64.356C204.332,62.147,202.541,60.356,200.332,60.356z"/>
		<path fill="none" stroke="#927EB9" stroke-width="2" d="M200.332,107.105c-2.209,0-4,1.791-4,4v7.535
			c0,0.376-0.208,0.623-0.332,0.736c-1.63,1.491-1.742,4.021-0.251,5.651c0.789,0.862,1.869,1.3,2.952,1.3
			c0.965,0,1.932-0.347,2.699-1.049c1.863-1.705,2.932-4.125,2.932-6.639v-7.535C204.332,108.896,202.541,107.105,200.332,107.105z"
			/>
		<path fill="none" stroke="#927EB9" stroke-width="2" d="M187.345,119.641h-11.688c-2.209,0-4,1.791-4,4s1.791,4,4,4h11.688
			c2.209,0,4-1.791,4-4S189.554,119.641,187.345,119.641z"/>
		<path fill="none" stroke="#927EB9" stroke-width="2" d="M165.939,26h-11.688c-2.209,0-4,1.791-4,4s1.791,4,4,4h11.688
			c2.209,0,4-1.791,4-4S168.148,26,165.939,26z"/>
	</g>
</g>
<radialGradient id="SVGID_14_" cx="89.4854" cy="82.5" r="23.7382" gradientUnits="userSpaceOnUse">
	<stop  offset="0" style="stop-color:#262721"/>
	<stop  offset="1" style="stop-color:#F8F8F1"/>
</radialGradient>
<path fill="url(#SVGID_14_)" stroke="#927EB9" stroke-width="2" d="M105.34,55.431H80c-2.209,0-4,1.791-4,4v28.267l-6.369-2.706
	L80,109.57l10.369-24.579L84,87.697V63.431h21.34c2.209,0,4-1.791,4-4S107.549,55.431,105.34,55.431z"/>
<radialGradient id="SVGID_15_" cx="160.5146" cy="167.5" r="23.7376" gradientUnits="userSpaceOnUse">
	<stop  offset="0" style="stop-color:#262721"/>
	<stop  offset="1" style="stop-color:#F8F8F1"/>
</radialGradient>
<path fill="url(#SVGID_15_)" stroke="#927EB9" stroke-width="2" d="M180.369,165.009L170,140.43l-10.369,24.579l6.369-2.706v24.267
	h-21.34c-2.209,0-4,1.791-4,4s1.791,4,4,4H170c2.209,0,4-1.791,4-4v-28.267L180.369,165.009z"/>
</svg>
