<?xml version="1.0" encoding="utf-8"?>
<!-- Generator: Adobe Illustrator 15.1.0, SVG Export Plug-In  -->
<!DOCTYPE svg PUBLIC "-//W3C//DTD SVG 1.1//EN" "http://www.w3.org/Graphics/SVG/1.1/DTD/svg11.dtd" [
	<!ENTITY ns_flows "http://ns.adobe.com/Flows/1.0/">
]>
<svg version="1.1"
	 xmlns="http://www.w3.org/2000/svg" xmlns:xlink="http://www.w3.org/1999/xlink" xmlns:a="http://ns.adobe.com/AdobeSVGViewerExtensions/3.0/"
	 x="0px" y="0px" width="250px" height="250px" viewBox="0 0 250 250" overflow="visible" enable-background="new 0 0 250 250"
	 xml:space="preserve">
<defs>
</defs>
<rect display="none" fill="#262721" width="250" height="250"/>
<radialGradient id="SVGID_1_" cx="125.001" cy="125" r="114.2949" gradientUnits="userSpaceOnUse">
	<stop  offset="0" style="stop-color:#74705D"/>
	<stop  offset="0.2787" style="stop-color:#736F5C"/>
	<stop  offset="0.4463" style="stop-color:#6E6A58"/>
	<stop  offset="0.5845" style="stop-color:#656151"/>
	<stop  offset="0.7069" style="stop-color:#595648"/>
	<stop  offset="0.8186" style="stop-color:#4A483C"/>
	<stop  offset="0.9211" style="stop-color:#37372F"/>
	<stop  offset="1" style="stop-color:#262721"/>
</radialGradient>
<path fill="url(#SVGID_1_)" d="M94.375,239.295l-83.669-83.67L41.332,41.33l114.294-30.625l83.67,83.669L208.67,208.668
	L94.375,239.295z M21.86,152.637l75.504,75.504l103.142-27.637l27.636-103.141l-75.504-75.504L49.497,49.495L21.86,152.637z"/>
<g display="none">
	<radialGradient id="SVGID_2_" cx="125" cy="125" r="89.2419" gradientUnits="userSpaceOnUse">
		<stop  offset="0" style="stop-color:#262721"/>
		<stop  offset="1" style="stop-color:#F8F8F1"/>
	</radialGradient>
	<path display="inline" fill="url(#SVGID_2_)" d="M25,193.5c-3.309,0-6-2.691-6-6V62.428l0.015-0.115
		c-0.002-0.129,0.024-0.342,0.053-0.555l0.021-0.169c0.013-0.125,0.028-0.25,0.055-0.371c0.034-0.158,0.085-0.312,0.137-0.465
		l0.076-0.23c0.045-0.146,0.092-0.292,0.153-0.43c0.053-0.12,0.118-0.236,0.184-0.351l0.056-0.099
		c0.136-0.251,0.232-0.424,0.347-0.586l0.053-0.088c0.069-0.096,0.147-0.181,0.227-0.264l0.815,0.591l-0.723-0.694
		c0.125-0.15,0.252-0.298,0.394-0.434c0.125-0.119,0.258-0.225,0.393-0.33l0.721,0.706l-0.622-0.783
		c0.137-0.109,0.274-0.215,0.423-0.31c0.148-0.094,0.302-0.174,0.458-0.253l0.568,0.833L22.35,57.14
		c0.152-0.078,0.305-0.154,0.466-0.217c0.167-0.064,0.334-0.113,0.502-0.16l0.405,0.925l-0.276-0.961
		c0.161-0.046,0.322-0.091,0.49-0.121c0.191-0.035,0.384-0.05,0.579-0.063l0.142-0.014C24.77,56.513,24.883,56.5,25,56.5h200
		c0.109,0,0.214,0.012,0.318,0.026l-0.009,1.005l0.131-0.994c0.237,0.014,0.474,0.032,0.706,0.077
		c0.155,0.03,0.309,0.076,0.461,0.125l0.231,0.069c0.142,0.04,0.282,0.082,0.42,0.137c0.157,0.064,0.301,0.141,0.444,0.22
		l0.199,0.105c0.134,0.067,0.267,0.137,0.394,0.22c0.137,0.091,0.263,0.193,0.389,0.298l0.187,0.15
		c0.115,0.09,0.229,0.181,0.334,0.285c0.196,0.193,0.37,0.413,0.54,0.635c0.084,0.09,0.145,0.162,0.2,0.241L230,59.187
		c0.209,0.313,0.387,0.644,0.529,0.982c0.127,0.299,0.201,0.59,0.267,0.847c0.036,0.099,0.062,0.184,0.081,0.273
		c0.074,0.361,0.115,0.731,0.12,1.104L231,187.5c0,3.309-2.691,6-6,6H25z M219,181.5V73.894l-93.605,64.221
		c-1.005,0.688-2.179,1.053-3.395,1.053c-1.278,0-2.5-0.397-3.533-1.15L31,74.295V181.5H219z M122.104,125.819L205.648,68.5H43.426
		L122.104,125.819z"/>
	<path display="inline" fill="#6EC7DC" d="M225,57.5c0.106,0,0.205,0.024,0.31,0.031c0.217,0.014,0.433,0.023,0.645,0.065
		c0.166,0.032,0.32,0.089,0.479,0.137c0.15,0.045,0.304,0.081,0.451,0.14c0.156,0.064,0.3,0.15,0.448,0.229
		c0.139,0.073,0.28,0.137,0.412,0.224c0.143,0.094,0.269,0.208,0.401,0.316c0.119,0.097,0.244,0.184,0.354,0.293
		c0.166,0.163,0.309,0.347,0.45,0.532c0.055,0.071,0.12,0.128,0.172,0.203c0.003,0.005,0.005,0.01,0.008,0.015
		c0.187,0.272,0.348,0.563,0.478,0.871c0.098,0.23,0.158,0.469,0.219,0.707c0.021,0.078,0.055,0.149,0.071,0.229
		c0.067,0.328,0.1,0.66,0.1,0.99c0,0.006,0.002,0.011,0.002,0.017v125c0,2.762-2.238,5-5,5H25c-2.761,0-5-2.238-5-5v-125
		c0-0.029,0.008-0.056,0.008-0.084c0.003-0.196,0.033-0.389,0.059-0.584c0.018-0.134,0.025-0.271,0.053-0.401
		c0.036-0.163,0.097-0.321,0.149-0.481c0.05-0.153,0.091-0.31,0.155-0.456c0.056-0.128,0.134-0.248,0.202-0.373
		c0.091-0.167,0.178-0.335,0.287-0.49c0.017-0.024,0.027-0.052,0.044-0.076c0.07-0.096,0.157-0.17,0.233-0.26
		c0.117-0.139,0.231-0.279,0.362-0.405c0.118-0.113,0.246-0.208,0.373-0.308c0.127-0.101,0.251-0.202,0.389-0.29
		c0.138-0.088,0.283-0.159,0.428-0.232c0.145-0.073,0.286-0.148,0.438-0.208c0.152-0.059,0.307-0.1,0.463-0.144
		c0.155-0.044,0.308-0.091,0.468-0.12c0.179-0.032,0.358-0.042,0.539-0.054C24.769,57.527,24.881,57.5,25,57.5H225 M122.086,127.044
		L208.874,67.5H40.355L122.086,127.044 M122,138.167c-1.034,0-2.068-0.32-2.944-0.959L30,72.329V182.5h190V71.995l-95.171,65.295
		C123.976,137.875,122.987,138.167,122,138.167 M225,55.5H25c-0.164,0-0.322,0.016-0.48,0.038l-0.072,0.007
		c-0.189,0.013-0.425,0.029-0.69,0.077c-0.2,0.036-0.394,0.088-0.587,0.144l-0.07,0.021l-0.05,0.014
		c-0.201,0.056-0.398,0.114-0.594,0.19c-0.197,0.077-0.379,0.167-0.561,0.259l-0.057,0.028l-0.055,0.028
		c-0.186,0.094-0.369,0.19-0.546,0.304c-0.175,0.111-0.34,0.238-0.504,0.369l-0.046,0.036l-0.045,0.035
		c-0.163,0.126-0.322,0.254-0.473,0.399c-0.192,0.184-0.345,0.366-0.467,0.512l-0.041,0.049c-0.076,0.077-0.198,0.202-0.322,0.373
		l-0.086,0.118l-0.044,0.082c-0.124,0.187-0.22,0.364-0.299,0.51l-0.039,0.071l-0.045,0.079c-0.085,0.147-0.167,0.296-0.233,0.449
		c-0.077,0.175-0.137,0.355-0.193,0.537l-0.031,0.098l-0.035,0.104c-0.049,0.145-0.117,0.343-0.168,0.575
		c-0.035,0.159-0.056,0.319-0.073,0.48l-0.009,0.081l-0.008,0.058c-0.025,0.182-0.055,0.402-0.065,0.652
		C18.004,62.35,18,62.424,18,62.5v125c0,3.859,3.14,7,7,7h200c3.859,0,7-3.141,7-7v-125v-0.179l-0.005-0.025
		c-0.011-0.407-0.057-0.812-0.138-1.205c-0.027-0.133-0.064-0.256-0.106-0.376c-0.065-0.257-0.152-0.586-0.301-0.937
		c-0.167-0.395-0.375-0.78-0.619-1.146l-0.023-0.04l-0.041-0.059c-0.079-0.115-0.166-0.219-0.258-0.319
		c-0.178-0.232-0.365-0.466-0.606-0.704c-0.156-0.155-0.308-0.272-0.419-0.358l-0.073-0.058l-0.084-0.07
		c-0.118-0.098-0.279-0.233-0.479-0.365c-0.161-0.106-0.326-0.195-0.494-0.28l-0.087-0.044l-0.082-0.045
		c-0.135-0.074-0.319-0.176-0.542-0.267c-0.182-0.073-0.357-0.126-0.535-0.176l-0.096-0.027l-0.099-0.031
		c-0.146-0.046-0.344-0.11-0.583-0.156c-0.311-0.061-0.599-0.079-0.829-0.093l-0.065-0.004C225.307,55.515,225.156,55.5,225,55.5
		L225,55.5z M46.497,69.5h155.927l-80.303,55.095L46.497,69.5L46.497,69.5z M122,140.167c1.419,0,2.789-0.425,3.96-1.228L218,75.792
		V180.5H32V76.261l85.878,62.563C119.083,139.703,120.509,140.167,122,140.167L122,140.167z"/>
</g>
<g>
	<radialGradient id="SVGID_3_" cx="125" cy="125" r="89.2419" gradientUnits="userSpaceOnUse">
		<stop  offset="0" style="stop-color:#262721"/>
		<stop  offset="1" style="stop-color:#F8F8F1"/>
	</radialGradient>
	<path fill="url(#SVGID_3_)" d="M216.876,193.5l2.765-1.833c0.994-0.659,1.963-1.36,2.88-2.082c2.511-1.932,3.779-4.044,3.779-6.285
		c0-1.461-0.503-2.694-1.453-3.567l-0.803-0.736l0.802-0.736c0.369-0.339,0.736-0.693,1.101-1.064
		c1.186-1.212,2.279-2.489,3.251-3.795l1.803-2.423V187.5c0,3.309-2.691,6-6,6H216.876z M25,193.5c-3.309,0-6-2.691-6-6V62.428
		l0.015-0.115c-0.002-0.129,0.024-0.342,0.053-0.555l0.021-0.169c0.013-0.125,0.028-0.25,0.055-0.371
		c0.034-0.158,0.085-0.312,0.137-0.465l0.076-0.23c0.045-0.146,0.092-0.292,0.153-0.43c0.053-0.12,0.118-0.236,0.184-0.351
		l0.056-0.099c0.136-0.251,0.232-0.424,0.347-0.586l0.053-0.088c0.069-0.096,0.147-0.181,0.227-0.264l0.815,0.591l-0.723-0.694
		c0.125-0.15,0.252-0.298,0.394-0.434c0.125-0.119,0.258-0.225,0.393-0.33l0.721,0.706l-0.622-0.783
		c0.137-0.109,0.274-0.215,0.423-0.31c0.148-0.094,0.302-0.174,0.458-0.253l0.568,0.833L22.35,57.14
		c0.152-0.078,0.305-0.154,0.466-0.217c0.167-0.064,0.334-0.113,0.502-0.16l0.405,0.925l-0.276-0.961
		c0.161-0.046,0.322-0.091,0.49-0.121c0.191-0.035,0.384-0.05,0.579-0.063l0.142-0.014C24.77,56.513,24.883,56.5,25,56.5h200
		c0.109,0,0.214,0.012,0.318,0.026l-0.009,1.005l0.131-0.994c0.237,0.014,0.474,0.032,0.706,0.077
		c0.155,0.03,0.309,0.076,0.461,0.125l0.231,0.069c0.142,0.04,0.282,0.082,0.42,0.137c0.157,0.064,0.301,0.141,0.444,0.22
		l0.199,0.105c0.134,0.067,0.267,0.137,0.394,0.22c0.137,0.091,0.263,0.193,0.389,0.298l0.187,0.15
		c0.115,0.09,0.229,0.181,0.334,0.285c0.196,0.193,0.37,0.413,0.54,0.635c0.084,0.09,0.145,0.162,0.2,0.241L230,59.187
		c0.209,0.313,0.387,0.644,0.529,0.982c0.127,0.299,0.201,0.59,0.267,0.847c0.036,0.099,0.062,0.184,0.081,0.273
		c0.074,0.361,0.115,0.731,0.12,1.104L231,138.7l-1.75-1.984c-0.564-0.64-1.153-1.248-1.75-1.806
		c-2.312-2.164-4.965-3.879-7.885-5.098L219,129.556V73.894l-93.605,64.221c-1.005,0.688-2.179,1.053-3.395,1.053
		c-1.278,0-2.5-0.397-3.533-1.15L31,74.295V181.5h140.064l0.283,0.524c1.377,2.55,3.154,4.92,5.28,7.047
		c0.915,0.916,1.925,1.804,3.002,2.639l2.311,1.79H25z M122.104,125.819L205.648,68.5H43.426L122.104,125.819z"/>
	<path fill="#6EC7DC" d="M225,57.5c0.106,0,0.205,0.024,0.31,0.031c0.217,0.014,0.433,0.023,0.645,0.065
		c0.166,0.032,0.32,0.089,0.479,0.137c0.15,0.045,0.304,0.081,0.451,0.14c0.156,0.064,0.3,0.15,0.448,0.229
		c0.139,0.073,0.28,0.137,0.412,0.224c0.143,0.094,0.269,0.208,0.401,0.316c0.119,0.097,0.244,0.184,0.354,0.293
		c0.166,0.163,0.309,0.347,0.45,0.532c0.055,0.071,0.12,0.128,0.172,0.203c0.003,0.005,0.005,0.01,0.008,0.015
		c0.187,0.272,0.348,0.563,0.478,0.871c0.098,0.23,0.158,0.469,0.219,0.707c0.021,0.078,0.055,0.149,0.071,0.229
		c0.067,0.328,0.1,0.66,0.1,0.99c0,0.006,0.002,0.011,0.002,0.017v73.555c-0.569-0.646-1.173-1.272-1.816-1.875
		c-2.415-2.261-5.149-4.024-8.184-5.29V71.995l-95.171,65.295c-0.854,0.585-1.842,0.877-2.829,0.877
		c-1.034,0-2.068-0.32-2.944-0.959L30,72.329V182.5h140.468c1.421,2.63,3.236,5.062,5.453,7.278
		c0.988,0.989,2.024,1.891,3.097,2.722H25c-2.761,0-5-2.238-5-5v-125c0-0.029,0.008-0.056,0.008-0.084
		c0.003-0.196,0.033-0.389,0.059-0.584c0.018-0.134,0.025-0.271,0.053-0.401c0.036-0.163,0.097-0.321,0.149-0.481
		c0.05-0.153,0.091-0.31,0.155-0.456c0.056-0.128,0.134-0.248,0.202-0.373c0.091-0.167,0.178-0.335,0.287-0.49
		c0.017-0.024,0.027-0.052,0.044-0.076c0.07-0.096,0.157-0.17,0.233-0.26c0.117-0.139,0.231-0.279,0.362-0.405
		c0.118-0.113,0.246-0.208,0.373-0.308c0.127-0.101,0.251-0.202,0.389-0.29c0.138-0.088,0.283-0.159,0.428-0.232
		c0.145-0.073,0.286-0.148,0.438-0.208c0.152-0.059,0.307-0.1,0.463-0.144c0.155-0.044,0.308-0.091,0.468-0.12
		c0.179-0.032,0.358-0.042,0.539-0.054C24.769,57.527,24.881,57.5,25,57.5H225 M122.086,127.044L208.874,67.5H40.355
		L122.086,127.044 M230,173.997V187.5c0,2.762-2.238,5-5,5h-4.807c0.997-0.661,1.98-1.369,2.946-2.13
		c2.761-2.124,4.16-4.503,4.16-7.07c0-1.777-0.657-3.275-1.777-4.304c0.382-0.351,0.762-0.717,1.138-1.101
		C227.888,176.641,229.001,175.34,230,173.997 M225,55.5H25c-0.164,0-0.322,0.016-0.48,0.038l-0.072,0.007
		c-0.189,0.013-0.425,0.029-0.69,0.077c-0.2,0.036-0.394,0.088-0.587,0.144l-0.07,0.021l-0.05,0.014
		c-0.201,0.056-0.398,0.114-0.594,0.19c-0.197,0.077-0.379,0.167-0.561,0.259l-0.057,0.028l-0.055,0.028
		c-0.186,0.094-0.369,0.19-0.546,0.304c-0.175,0.111-0.34,0.238-0.504,0.369l-0.046,0.036l-0.045,0.035
		c-0.163,0.126-0.322,0.254-0.473,0.399c-0.192,0.184-0.345,0.366-0.467,0.512l-0.041,0.049c-0.076,0.077-0.198,0.202-0.322,0.373
		l-0.086,0.118l-0.044,0.082c-0.124,0.187-0.22,0.364-0.299,0.51l-0.039,0.071l-0.045,0.079c-0.085,0.147-0.167,0.296-0.233,0.449
		c-0.077,0.175-0.137,0.355-0.193,0.537l-0.031,0.098l-0.035,0.104c-0.049,0.145-0.117,0.343-0.168,0.575
		c-0.035,0.159-0.056,0.319-0.073,0.48l-0.009,0.081l-0.008,0.058c-0.025,0.182-0.055,0.402-0.065,0.652
		C18.004,62.35,18,62.424,18,62.5v125c0,3.859,3.14,7,7,7h154.018h5.846l-4.62-3.581c-1.044-0.809-2.022-1.668-2.907-2.554
		c-2.059-2.059-3.777-4.352-5.108-6.816l-0.567-1.049h-1.192H32V76.261l85.878,62.563c1.205,0.879,2.631,1.343,4.122,1.343
		c1.419,0,2.789-0.425,3.96-1.228L218,75.792v53.097v1.333l1.23,0.513c2.81,1.172,5.362,2.822,7.586,4.904
		c0.573,0.536,1.14,1.121,1.684,1.738l3.5,3.968v-5.291V62.5v-0.179l-0.005-0.025c-0.011-0.407-0.057-0.812-0.138-1.205
		c-0.027-0.133-0.064-0.256-0.106-0.376c-0.065-0.257-0.152-0.586-0.301-0.937c-0.167-0.395-0.375-0.78-0.619-1.146l-0.023-0.04
		l-0.041-0.059c-0.079-0.115-0.166-0.219-0.258-0.319c-0.178-0.232-0.365-0.466-0.606-0.704c-0.156-0.155-0.308-0.272-0.419-0.358
		l-0.073-0.058l-0.084-0.07c-0.118-0.098-0.279-0.233-0.479-0.365c-0.161-0.106-0.326-0.195-0.494-0.28l-0.087-0.044l-0.082-0.045
		c-0.135-0.074-0.319-0.176-0.542-0.267c-0.182-0.073-0.357-0.126-0.535-0.176l-0.096-0.027l-0.099-0.031
		c-0.146-0.046-0.344-0.11-0.583-0.156c-0.311-0.061-0.599-0.079-0.829-0.093l-0.065-0.004C225.307,55.515,225.156,55.5,225,55.5
		L225,55.5z M46.497,69.5h155.927l-80.303,55.095L46.497,69.5L46.497,69.5z M232,167.958l-3.604,4.845
		c-0.945,1.271-2.01,2.514-3.165,3.694c-0.337,0.344-0.693,0.689-1.061,1.025l-1.604,1.474l1.604,1.474
		c0.739,0.679,1.13,1.657,1.13,2.83c0,1.914-1.137,3.76-3.38,5.485c-0.914,0.72-1.861,1.404-2.832,2.048l-5.53,3.667h6.636H225
		c3.859,0,7-3.141,7-7v-13.503V167.958L232,167.958z"/>
</g>
<path fill="#F8F8F1" stroke="#6EC7DC" stroke-width="2" d="M206.7,176.13c0-0.507,0.032-0.948,0.1-1.33
	c-2.534,3.8-6.435,5.7-11.7,5.7c-3.199,0-5.784-1.086-7.75-3.26c-1.967-2.172-2.949-4.996-2.949-8.475
	c0-6.083,2.199-11.448,6.6-16.096c4.4-4.646,9.5-6.97,15.3-6.97c1.333,0,2.8,0.2,4.4,0.6l2,0.5c0.266,0.135,0.6,0.2,1,0.2
	c0.333,0,0.899-0.18,1.7-0.542c1.065-0.505,1.832-0.758,2.3-0.758c1,0,1.5,0.436,1.5,1.305c0,0.2-0.067,0.568-0.2,1.103l-0.5,1.906
	l-5.7,21.374c-0.2,0.803-0.3,1.438-0.3,1.906c0,1.204,0.633,1.806,1.9,1.806c2.465,0,4.766-1.6,6.899-4.8
	c3-4.466,4.5-9.633,4.5-15.5c0-5.532-1.817-10.133-5.45-13.8c-3.634-3.666-8.217-5.5-13.75-5.5c-7.8,0-14.584,3.117-20.35,9.35
	c-5.768,6.234-8.65,13.551-8.65,21.95c0,6.534,2.101,11.984,6.301,16.351c4.199,4.367,9.465,6.55,15.8,6.55
	c3.732,0,6.815-0.45,9.25-1.351c2.433-0.899,5.482-2.683,9.149-5.35c1.333-1,2.434-1.5,3.301-1.5c1.266,0,1.899,0.6,1.899,1.8
	c0,1.268-0.867,2.567-2.6,3.9c-6.601,5.2-13.867,7.8-21.8,7.8c-8.067,0-14.785-2.683-20.15-8.05
	c-5.367-5.366-8.05-12.083-8.05-20.15c0-9.732,3.615-18.216,10.85-25.45c7.233-7.232,15.783-10.85,25.65-10.85
	c7.466,0,13.55,2.2,18.25,6.6c4.7,4.4,7.05,10.135,7.05,17.2c0,7.935-2.9,14.867-8.7,20.8c-3.534,3.601-7.234,5.4-11.1,5.4
	c-1.734,0-3.167-0.411-4.3-1.234C207.266,178.442,206.7,177.396,206.7,176.13z M208.8,162.349l2.7-10.042
	c-2-1.004-3.935-1.507-5.8-1.507c-3.867,0-7.25,1.708-10.15,5.122c-2.899,3.414-4.35,7.396-4.35,11.95c0,4.618,2,6.928,6,6.928
	C202.732,174.8,206.6,170.65,208.8,162.349z"/>
</svg>
