<?xml version="1.0" encoding="utf-8"?>
<!-- Generator: Adobe Illustrator 15.1.0, SVG Export Plug-In  -->
<!DOCTYPE svg PUBLIC "-//W3C//DTD SVG 1.1//EN" "http://www.w3.org/Graphics/SVG/1.1/DTD/svg11.dtd" [
	<!ENTITY ns_flows "http://ns.adobe.com/Flows/1.0/">
]>
<svg version="1.1"
	 xmlns="http://www.w3.org/2000/svg" xmlns:xlink="http://www.w3.org/1999/xlink" xmlns:a="http://ns.adobe.com/AdobeSVGViewerExtensions/3.0/"
	 x="0px" y="0px" width="250px" height="250px" viewBox="0 0 250 250" overflow="visible" enable-background="new 0 0 250 250"
	 xml:space="preserve">
<defs>
</defs>
<rect display="none" fill="#262721" width="250" height="250"/>
<radialGradient id="SVGID_1_" cx="197.3281" cy="171.9595" r="0.7257" gradientUnits="userSpaceOnUse">
	<stop  offset="0" style="stop-color:#262721"/>
	<stop  offset="1" style="stop-color:#F8F8F1"/>
</radialGradient>
<polygon fill="url(#SVGID_1_)" stroke="#6EC7DC" stroke-width="2" stroke-miterlimit="10" points="198,172.735 198,171.184 
	196.656,171.959 "/>
<radialGradient id="SVGID_2_" cx="125.0098" cy="125" r="87.837" gradientUnits="userSpaceOnUse">
	<stop  offset="0" style="stop-color:#262721"/>
	<stop  offset="1" style="stop-color:#F8F8F1"/>
</radialGradient>
<path fill="url(#SVGID_2_)" stroke="#6EC7DC" stroke-width="2" stroke-miterlimit="10" d="M190.156,183.218v14.991v2h-2H188V215.5
	H62v-181h92v29c0,2.761,2.238,5,5,5h29v75.208h0.156h2v2v14.993l7.844-4.529V63.699c0.003-0.067,0.02-0.131,0.02-0.199
	c0-1.517-0.674-2.875-1.74-3.792l-33.744-33.744c-0.208-0.209-0.436-0.389-0.672-0.555c-0.072-0.05-0.146-0.092-0.221-0.139
	c-0.178-0.111-0.361-0.211-0.551-0.299c-0.086-0.04-0.172-0.08-0.262-0.115c-0.237-0.093-0.479-0.17-0.729-0.226
	c-0.038-0.009-0.074-0.023-0.113-0.031c-0.293-0.059-0.592-0.084-0.891-0.09c-0.033,0-0.064-0.01-0.098-0.01H62
	c-5.514,0-10,4.486-10,10v181c0,5.514,4.486,10,10,10h126c5.514,0,10-4.486,10-10v-27.754L190.156,183.218z M164,41.571
	L180.929,58.5H164V41.571z"/>
<g>
	<radialGradient id="SVGID_3_" cx="183.6562" cy="171.9585" r="24.4477" gradientUnits="userSpaceOnUse">
		<stop  offset="0" style="stop-color:#F8F8F1"/>
		<stop  offset="1" style="stop-color:#6EC7DC"/>
	</radialGradient>
	<polygon fill="url(#SVGID_3_)" points="180.156,197.208 180.156,178.021 163.54,187.615 160.04,181.553 176.656,171.959 
		160.038,162.365 163.538,156.303 180.156,165.897 180.156,146.708 187.156,146.708 187.156,165.897 203.774,156.303 
		207.274,162.365 190.656,171.959 207.272,181.553 203.772,187.615 187.156,178.021 187.156,197.208 	"/>
	<path fill="#6EC7DC" d="M186.156,147.708v16.457v3.464l3-1.732l14.252-8.229l2.5,4.33l-14.252,8.229l-3,1.732l3,1.732l14.25,8.228
		l-2.5,4.33l-14.25-8.228l-3-1.732v3.464v16.455h-5v-16.455v-3.464l-3,1.732l-14.25,8.228l-2.5-4.33l14.25-8.228l3-1.732l-3-1.732
		l-14.252-8.229l2.5-4.33l14.252,8.229l3,1.732v-3.464v-16.457H186.156 M188.156,145.708h-9v18.457l-15.984-9.229l-4.5,7.794
		l15.984,9.229l-15.982,9.228l4.5,7.794l15.982-9.228v18.455h9v-18.455l15.982,9.228l4.5-7.794l-15.982-9.228l15.984-9.229
		l-4.5-7.794l-15.984,9.229V145.708L188.156,145.708z"/>
</g>
</svg>
