<?xml version="1.0" encoding="utf-8"?>
<!-- Generator: Adobe Illustrator 15.1.0, SVG Export Plug-In  -->
<!DOCTYPE svg PUBLIC "-//W3C//DTD SVG 1.1//EN" "http://www.w3.org/Graphics/SVG/1.1/DTD/svg11.dtd" [
	<!ENTITY ns_flows "http://ns.adobe.com/Flows/1.0/">
]>
<svg version="1.1"
	 xmlns="http://www.w3.org/2000/svg" xmlns:xlink="http://www.w3.org/1999/xlink" xmlns:a="http://ns.adobe.com/AdobeSVGViewerExtensions/3.0/"
	 x="0px" y="0px" width="250px" height="250px" viewBox="0 0 250 250" overflow="visible" enable-background="new 0 0 250 250"
	 xml:space="preserve">
<defs>
</defs>
<rect display="none" fill="#262721" width="250" height="250"/>
<g>
	<radialGradient id="SVGID_1_" cx="182.8086" cy="174" r="25" gradientUnits="userSpaceOnUse">
		<stop  offset="0" style="stop-color:#F8F8F1"/>
		<stop  offset="1" style="stop-color:#E72E6C"/>
	</radialGradient>
	<path fill="url(#SVGID_1_)" d="M182.809,199c-13.785,0-25-11.215-25-25s11.215-25,25-25s25,11.215,25,25S196.594,199,182.809,199z"
		/>
	<path fill="#E72E6C" d="M182.809,150c13.233,0,24,10.767,24,24s-10.767,24-24,24s-24-10.767-24-24S169.575,150,182.809,150
		 M182.809,148c-14.359,0-26,11.641-26,26s11.641,26,26,26s26-11.641,26-26S197.168,148,182.809,148L182.809,148z"/>
</g>
<radialGradient id="SVGID_2_" cx="125.0098" cy="125" r="87.8372" gradientUnits="userSpaceOnUse">
	<stop  offset="0" style="stop-color:#262721"/>
	<stop  offset="1" style="stop-color:#F8F8F1"/>
</radialGradient>
<path fill="url(#SVGID_2_)" stroke="#E72E6C" stroke-width="2" stroke-miterlimit="10" d="M188,201.51v13.99H62v-181h92v29
	c0,2.762,2.239,5,5,5h29v77.99c3.628,0.684,7.009,2.067,10,4.008V63.699c0.003-0.068,0.02-0.131,0.02-0.199
	c0-1.517-0.675-2.875-1.741-3.792l-33.743-33.743c-0.208-0.209-0.437-0.39-0.673-0.555c-0.071-0.051-0.146-0.093-0.22-0.139
	c-0.179-0.111-0.362-0.212-0.551-0.299c-0.086-0.041-0.172-0.08-0.261-0.115c-0.238-0.094-0.48-0.17-0.729-0.227
	c-0.039-0.009-0.074-0.023-0.113-0.031c-0.293-0.059-0.592-0.084-0.892-0.09c-0.033,0-0.064-0.01-0.097-0.01H62
	c-5.514,0-10,4.486-10,10v181c0,5.514,4.486,10,10,10h126c5.514,0,10-4.486,10-10v-17.998
	C195.009,199.442,191.628,200.826,188,201.51z M164,41.571L180.929,58.5H164V41.571z"/>
<line fill="none" stroke="#F8F8F1" stroke-width="7" stroke-miterlimit="10" x1="167.809" y1="174" x2="197.809" y2="174"/>
</svg>
