<?xml version="1.0" encoding="utf-8"?>
<!-- Generator: Adobe Illustrator 15.1.0, SVG Export Plug-In  -->
<!DOCTYPE svg PUBLIC "-//W3C//DTD SVG 1.1//EN" "http://www.w3.org/Graphics/SVG/1.1/DTD/svg11.dtd" [
	<!ENTITY ns_flows "http://ns.adobe.com/Flows/1.0/">
]>
<svg version="1.1"
	 xmlns="http://www.w3.org/2000/svg" xmlns:xlink="http://www.w3.org/1999/xlink" xmlns:a="http://ns.adobe.com/AdobeSVGViewerExtensions/3.0/"
	 x="0px" y="0px" width="250px" height="250px" viewBox="0 0 250 250" overflow="visible" enable-background="new 0 0 250 250"
	 xml:space="preserve">
<defs>
</defs>
<rect display="none" fill="#262721" width="250" height="250"/>
<g display="none">
	<path display="inline" fill="none" stroke="#F8F8F1" stroke-width="10" stroke-linecap="round" stroke-miterlimit="10" d="
		M193,63.5v152c0,2.75-2.25,5-5,5H62c-2.75,0-5-2.25-5-5V64c0-2.75,0-7.25,0-10V34.5c0-2.75,2.25-5,5-5h97"/>
</g>
<polygon display="none" fill="none" stroke="#F8F8F1" stroke-width="10" stroke-linecap="round" stroke-linejoin="round" stroke-miterlimit="10" points="
	193,63.5 159,63.5 159,29.5 "/>
<radialGradient id="SVGID_1_" cx="125.0098" cy="125" r="87.8372" gradientUnits="userSpaceOnUse">
	<stop  offset="0" style="stop-color:#262721"/>
	<stop  offset="1" style="stop-color:#F8F8F1"/>
</radialGradient>
<path fill="url(#SVGID_1_)" stroke="#E0B973" stroke-width="2" stroke-miterlimit="10" d="M198.02,63.5
	c0-1.517-0.675-2.875-1.741-3.792l-33.743-33.744c-0.208-0.209-0.437-0.389-0.673-0.555c-0.071-0.05-0.146-0.092-0.22-0.139
	c-0.179-0.111-0.362-0.211-0.551-0.299c-0.086-0.04-0.172-0.08-0.261-0.115c-0.238-0.093-0.48-0.17-0.729-0.226
	c-0.039-0.009-0.074-0.023-0.113-0.031c-0.293-0.059-0.592-0.084-0.892-0.09c-0.033,0-0.064-0.01-0.097-0.01H62
	c-5.514,0-10,4.486-10,10v181c0,5.514,4.486,10,10,10h126c5.514,0,10-4.486,10-10V63.699C198.003,63.631,198.02,63.568,198.02,63.5z
	 M164,41.571L180.929,58.5H164V41.571z M62,215.5v-181h92v29c0,2.761,2.239,5,5,5h29v147H62z"/>
</svg>
