<?xml version="1.0" encoding="utf-8"?>
<!-- Generator: Adobe Illustrator 15.1.0, SVG Export Plug-In . SVG Version: 6.00 Build 0)  -->
<!DOCTYPE svg PUBLIC "-//W3C//DTD SVG 1.1//EN" "http://www.w3.org/Graphics/SVG/1.1/DTD/svg11.dtd">
<svg version="1.1" id="レイヤー_1" xmlns="http://www.w3.org/2000/svg" xmlns:xlink="http://www.w3.org/1999/xlink" x="0px"
	 y="0px" width="400px" height="400px" viewBox="0 0 400 400" enable-background="new 0 0 400 400" xml:space="preserve">
<rect x="-50" y="-50" display="none" fill="#262721" width="500" height="500"/>
<radialGradient id="SVGID_1_" cx="200" cy="200" r="180.3125" gradientUnits="userSpaceOnUse">
	<stop  offset="0" style="stop-color:#F8F8F1"/>
	<stop  offset="1" style="stop-color:#262721"/>
</radialGradient>
<path fill="url(#SVGID_1_)" d="M200,380.312L19.688,200L200,19.687L380.312,200L200,380.312z M26.759,200L200,373.242L373.242,200
	L200,26.758L26.759,200z"/>
<path display="none" fill="none" stroke="#6EC7DC" stroke-width="30" stroke-miterlimit="10" d="M249.333,270.525v-79.051
	c0-27.614-22.385-50-50-50c-27.614,0-50,22.385-50,50v79.051"/>
<path fill="none" stroke="#F29327" stroke-width="30" stroke-miterlimit="10" d="M199.333,141.475c-27.614,0-50,22.385-50,50v79.051
	"/>
<linearGradient id="SVGID_2_" gradientUnits="userSpaceOnUse" x1="58.0669" y1="189.3335" x2="341.9326" y2="189.3335">
	<stop  offset="0" style="stop-color:#927EB9"/>
	<stop  offset="1" style="stop-color:#6EC7DC"/>
</linearGradient>
<path fill="url(#SVGID_2_)" d="M317.5,282.068V89.334c0-8.155-5.543-15.158-13.479-17.032c-1.319-0.312-2.674-0.47-4.024-0.47
	c-6.669,0-12.665,3.708-15.649,9.676L200,250.202L123.198,96.599h18.317l-41.72-72.265L58.067,96.599H82.5v195.234h35V163.465
	l66.847,133.694c2.984,5.967,8.981,9.674,15.653,9.674c6.672,0,12.67-3.707,15.652-9.674L282.5,163.464v118.604h-24.016
	l41.721,72.265l41.728-72.265H317.5z"/>
<g>
	<g>
		<line fill="none" stroke="#F8F8F1" stroke-width="30" stroke-miterlimit="10" x1="100" y1="289.333" x2="100" y2="83.156"/>
		<g>
			<polygon fill="#F8F8F1" points="137.185,94.099 99.795,29.334 62.397,94.099 			"/>
		</g>
	</g>
</g>
<g>
	<g>
		<polyline fill="none" stroke="#F8F8F1" stroke-width="30" stroke-linejoin="round" points="100,89.334 200,289.333 300,89.334 
			300,295.511 		"/>
		<g>
			<polygon fill="#F8F8F1" points="262.814,284.568 300.205,349.333 337.603,284.568 			"/>
		</g>
	</g>
</g>
<path fill="none" stroke="#F29327" stroke-width="30" stroke-linecap="round" stroke-miterlimit="10" d="M249.333,270.525v-79.051
	c0-27.614-22.385-50-50-50"/>
<g id="レイヤー_2">
	<g>
		<g>
			<radialGradient id="SVGID_3_" cx="101.2539" cy="319.3105" r="19.8179" gradientUnits="userSpaceOnUse">
				<stop  offset="0" style="stop-color:#F29327"/>
				<stop  offset="1" style="stop-color:#E0B973"/>
			</radialGradient>
			<path fill="url(#SVGID_3_)" d="M94.413,295.62v45.939h21.818V343H86.276v-47.38H94.413z M92.973,341.56v-44.5h-5.256v44.5H92.973
				z"/>
			<radialGradient id="SVGID_4_" cx="142.5811" cy="325.7188" r="17.7134" gradientUnits="userSpaceOnUse">
				<stop  offset="0" style="stop-color:#F29327"/>
				<stop  offset="1" style="stop-color:#E0B973"/>
			</radialGradient>
			<path fill="url(#SVGID_4_)" d="M155.11,313.189c3.384,3.384,5.185,7.705,5.185,12.529s-1.8,9.145-5.185,12.529
				c-3.384,3.384-7.849,5.184-12.529,5.184c-4.681,0-9.073-1.8-12.529-5.184c-3.384-3.457-5.185-7.85-5.185-12.529
				c0-4.681,1.8-9.146,5.185-12.529c3.457-3.385,7.849-5.185,12.529-5.185C147.262,308.005,151.726,309.805,155.11,313.189z
				 M135.237,340.264c-2.52-2.952-3.312-6.841-3.312-14.545c0-7.705,0.936-11.665,3.312-14.546c-1.44,0.792-2.808,1.801-4.176,3.024
				c-3.096,3.097-4.752,7.201-4.752,11.521s1.656,8.425,4.752,11.521C132.212,338.392,133.581,339.399,135.237,340.264z
				 M148.99,339.184c1.368-1.8,2.161-3.744,2.448-5.904c0.216-2.088,0.36-4.608,0.36-7.561c0-5.761-0.216-9.938-2.88-13.537
				c-1.368-1.801-3.456-2.664-6.336-2.664s-4.969,0.863-6.336,2.664c-1.368,1.8-2.161,3.816-2.448,5.977
				c-0.288,2.16-0.432,4.68-0.432,7.561c0,5.76,0.216,9.864,2.88,13.465c1.368,1.8,3.456,2.736,6.336,2.736
				S147.622,340.983,148.99,339.184z M158.855,325.719c0-4.32-1.656-8.425-4.752-11.521c-1.152-1.152-2.521-2.16-4.104-3.024
				c2.52,2.953,3.24,6.697,3.24,14.546c0,7.704-0.936,11.665-3.312,14.545c1.656-0.864,3.024-1.872,4.176-3.024
				C157.199,334.144,158.855,330.039,158.855,325.719z"/>
			<radialGradient id="SVGID_5_" cx="182.1807" cy="324.3867" r="9.4725" gradientUnits="userSpaceOnUse">
				<stop  offset="0" style="stop-color:#F29327"/>
				<stop  offset="1" style="stop-color:#E0B973"/>
			</radialGradient>
			<path fill="url(#SVGID_5_)" d="M168.932,326.366v-3.96h26.498v3.96H168.932z M170.372,323.847v1.08h23.618v-1.08H170.372z"/>
			<radialGradient id="SVGID_6_" cx="221.7803" cy="319.5254" r="21.0391" gradientUnits="userSpaceOnUse">
				<stop  offset="0" style="stop-color:#F29327"/>
				<stop  offset="1" style="stop-color:#E0B973"/>
			</radialGradient>
			<path fill="url(#SVGID_6_)" d="M231.357,340.624c-2.952,1.872-6.121,2.808-9.576,2.808c-4.682,0-9.073-1.8-12.529-5.184
				c-3.385-3.457-5.186-7.85-5.186-12.529c0-4.681,1.801-9.146,5.186-12.529c3.384-3.385,7.704-5.185,12.529-5.185
				c3.6,0,6.768,0.937,9.576,2.809V295.62h8.137V343h-8.137V340.624z M214.363,340.191c-2.52-2.88-3.24-6.769-3.24-14.473
				c0-5.112,0.361-8.209,1.225-10.729c0.504-1.512,1.225-2.808,2.16-3.816c-1.512,0.648-2.88,1.656-4.248,3.024
				c-3.096,3.097-4.752,7.201-4.752,11.521c0,2.088,0.432,4.176,1.224,6.192c0.792,1.944,1.944,3.672,3.528,5.328
				C211.484,338.464,212.852,339.399,214.363,340.191z M231.357,338.752v-26.139c-2.809-2.088-5.977-3.096-9.576-3.096
				c-2.881,0-4.969,0.863-6.337,2.664c-1.368,1.8-2.161,3.816-2.448,5.977c-0.288,2.16-0.432,4.68-0.432,7.561
				c0,5.76,0.215,9.864,2.88,13.465c1.368,1.8,3.456,2.736,6.337,2.736C225.381,341.92,228.549,340.84,231.357,338.752z
				 M232.797,297.06v44.5h5.258v-44.5H232.797z"/>
			<radialGradient id="SVGID_7_" cx="266.0957" cy="325.7188" r="17.4454" gradientUnits="userSpaceOnUse">
				<stop  offset="0" style="stop-color:#F29327"/>
				<stop  offset="1" style="stop-color:#E0B973"/>
			</radialGradient>
			<path fill="url(#SVGID_7_)" d="M254.179,338.248c-3.384-3.385-5.257-7.85-5.257-12.529c0-4.681,1.801-9.146,5.041-12.529
				c3.24-3.385,7.632-5.185,12.312-5.185s9.073,1.8,12.169,5.185c3.097,3.384,4.825,7.849,4.825,12.529v0.792h-25.851
				c0.072,5.473,0.432,9.577,3.096,12.889c1.368,1.656,3.385,2.521,6.121,2.521c5.544,0,10.513-2.736,13.609-7.345l1.224,0.864
				c-3.24,4.969-8.784,7.992-14.833,7.992C261.955,343.432,257.562,341.632,254.179,338.248z M250.362,325.719
				c0,4.32,1.728,8.425,4.824,11.521c1.225,1.225,2.664,2.232,4.177,3.024c-0.792-0.864-1.513-2.016-2.017-3.528
				c-1.151-2.952-1.296-5.688-1.368-10.225v-1.584c0.072-4.537,0.288-7.057,1.225-10.009c0.576-1.656,1.368-2.953,2.304-3.961
				c-1.656,0.792-3.168,1.872-4.536,3.24C252.019,317.294,250.362,321.326,250.362,325.719z M257.995,317.798
				c-0.36,2.088-0.504,4.464-0.576,7.2h17.354c0-5.256-0.288-9.36-2.809-12.745c-1.296-1.655-3.24-2.592-5.832-2.735
				C260.947,309.805,258.571,313.766,257.995,317.798z M272.468,310.669c1.08,1.08,1.944,2.521,2.521,4.249
				c0.864,2.592,1.225,5.472,1.225,10.152h5.616c-0.072-4.104-1.729-7.992-4.393-10.873
				C276.068,312.686,274.412,311.533,272.468,310.669z"/>
			<radialGradient id="SVGID_8_" cx="303.2109" cy="325.502" r="14.4343" gradientUnits="userSpaceOnUse">
				<stop  offset="0" style="stop-color:#F29327"/>
				<stop  offset="1" style="stop-color:#E0B973"/>
			</radialGradient>
			<path fill="url(#SVGID_8_)" d="M300.834,311.029c2.089-2.017,4.608-3.024,7.489-3.024c2.088,0,3.456,0.36,5.4,1.152l-0.576,1.368
				c-1.584-0.648-3.168-1.008-4.824-1.008c-3.385,0-5.761,2.447-6.625,4.68c-0.576,1.656-0.864,3.889-0.864,6.697V343h-8.137
				v-34.562h8.137V311.029z M299.395,341.56v-31.683h-5.257v31.683H299.395z"/>
		</g>
		<g>
			<radialGradient id="SVGID_9_" cx="200" cy="319.5254" r="82.1723" gradientUnits="userSpaceOnUse">
				<stop  offset="0" style="stop-color:#F29327"/>
				<stop  offset="1" style="stop-color:#E0B973"/>
			</radialGradient>
			<path fill="url(#SVGID_9_)" d="M94.413,295.62v45.939h21.818V343H86.276v-47.38H94.413z M92.973,341.56v-44.5h-5.256v44.5H92.973
				z"/>
			<radialGradient id="SVGID_10_" cx="200" cy="319.5254" r="82.1723" gradientUnits="userSpaceOnUse">
				<stop  offset="0" style="stop-color:#F29327"/>
				<stop  offset="1" style="stop-color:#E0B973"/>
			</radialGradient>
			<path fill="url(#SVGID_10_)" d="M155.11,313.189c3.384,3.384,5.185,7.705,5.185,12.529s-1.8,9.145-5.185,12.529
				c-3.384,3.384-7.849,5.184-12.529,5.184c-4.681,0-9.073-1.8-12.529-5.184c-3.384-3.457-5.185-7.85-5.185-12.529
				c0-4.681,1.8-9.146,5.185-12.529c3.457-3.385,7.849-5.185,12.529-5.185C147.262,308.005,151.726,309.805,155.11,313.189z
				 M135.237,340.264c-2.52-2.952-3.312-6.841-3.312-14.545c0-7.705,0.936-11.665,3.312-14.546c-1.44,0.792-2.808,1.801-4.176,3.024
				c-3.096,3.097-4.752,7.201-4.752,11.521s1.656,8.425,4.752,11.521C132.212,338.392,133.581,339.399,135.237,340.264z
				 M148.99,339.184c1.368-1.8,2.161-3.744,2.448-5.904c0.216-2.088,0.36-4.608,0.36-7.561c0-5.761-0.216-9.938-2.88-13.537
				c-1.368-1.801-3.456-2.664-6.336-2.664s-4.969,0.863-6.336,2.664c-1.368,1.8-2.161,3.816-2.448,5.977
				c-0.288,2.16-0.432,4.68-0.432,7.561c0,5.76,0.216,9.864,2.88,13.465c1.368,1.8,3.456,2.736,6.336,2.736
				S147.622,340.983,148.99,339.184z M158.855,325.719c0-4.32-1.656-8.425-4.752-11.521c-1.152-1.152-2.521-2.16-4.104-3.024
				c2.52,2.953,3.24,6.697,3.24,14.546c0,7.704-0.936,11.665-3.312,14.545c1.656-0.864,3.024-1.872,4.176-3.024
				C157.199,334.144,158.855,330.039,158.855,325.719z"/>
			<radialGradient id="SVGID_11_" cx="200" cy="319.5254" r="82.1723" gradientUnits="userSpaceOnUse">
				<stop  offset="0" style="stop-color:#F29327"/>
				<stop  offset="1" style="stop-color:#E0B973"/>
			</radialGradient>
			<path fill="url(#SVGID_11_)" d="M168.932,326.366v-3.96h26.498v3.96H168.932z M170.372,323.847v1.08h23.618v-1.08H170.372z"/>
			<radialGradient id="SVGID_12_" cx="200" cy="319.5254" r="82.1723" gradientUnits="userSpaceOnUse">
				<stop  offset="0" style="stop-color:#F29327"/>
				<stop  offset="1" style="stop-color:#E0B973"/>
			</radialGradient>
			<path fill="url(#SVGID_12_)" d="M231.357,340.624c-2.952,1.872-6.121,2.808-9.576,2.808c-4.682,0-9.073-1.8-12.529-5.184
				c-3.385-3.457-5.186-7.85-5.186-12.529c0-4.681,1.801-9.146,5.186-12.529c3.384-3.385,7.704-5.185,12.529-5.185
				c3.6,0,6.768,0.937,9.576,2.809V295.62h8.137V343h-8.137V340.624z M214.363,340.191c-2.52-2.88-3.24-6.769-3.24-14.473
				c0-5.112,0.361-8.209,1.225-10.729c0.504-1.512,1.225-2.808,2.16-3.816c-1.512,0.648-2.88,1.656-4.248,3.024
				c-3.096,3.097-4.752,7.201-4.752,11.521c0,2.088,0.432,4.176,1.224,6.192c0.792,1.944,1.944,3.672,3.528,5.328
				C211.484,338.464,212.852,339.399,214.363,340.191z M231.357,338.752v-26.139c-2.809-2.088-5.977-3.096-9.576-3.096
				c-2.881,0-4.969,0.863-6.337,2.664c-1.368,1.8-2.161,3.816-2.448,5.977c-0.288,2.16-0.432,4.68-0.432,7.561
				c0,5.76,0.215,9.864,2.88,13.465c1.368,1.8,3.456,2.736,6.337,2.736C225.381,341.92,228.549,340.84,231.357,338.752z
				 M232.797,297.06v44.5h5.258v-44.5H232.797z"/>
			<radialGradient id="SVGID_13_" cx="200" cy="319.5254" r="82.1723" gradientUnits="userSpaceOnUse">
				<stop  offset="0" style="stop-color:#F29327"/>
				<stop  offset="1" style="stop-color:#E0B973"/>
			</radialGradient>
			<path fill="url(#SVGID_13_)" d="M254.179,338.248c-3.384-3.385-5.257-7.85-5.257-12.529c0-4.681,1.801-9.146,5.041-12.529
				c3.24-3.385,7.632-5.185,12.312-5.185s9.073,1.8,12.169,5.185c3.097,3.384,4.825,7.849,4.825,12.529v0.792h-25.851
				c0.072,5.473,0.432,9.577,3.096,12.889c1.368,1.656,3.385,2.521,6.121,2.521c5.544,0,10.513-2.736,13.609-7.345l1.224,0.864
				c-3.24,4.969-8.784,7.992-14.833,7.992C261.955,343.432,257.562,341.632,254.179,338.248z M250.362,325.719
				c0,4.32,1.728,8.425,4.824,11.521c1.225,1.225,2.664,2.232,4.177,3.024c-0.792-0.864-1.513-2.016-2.017-3.528
				c-1.151-2.952-1.296-5.688-1.368-10.225v-1.584c0.072-4.537,0.288-7.057,1.225-10.009c0.576-1.656,1.368-2.953,2.304-3.961
				c-1.656,0.792-3.168,1.872-4.536,3.24C252.019,317.294,250.362,321.326,250.362,325.719z M257.995,317.798
				c-0.36,2.088-0.504,4.464-0.576,7.2h17.354c0-5.256-0.288-9.36-2.809-12.745c-1.296-1.655-3.24-2.592-5.832-2.735
				C260.947,309.805,258.571,313.766,257.995,317.798z M272.468,310.669c1.08,1.08,1.944,2.521,2.521,4.249
				c0.864,2.592,1.225,5.472,1.225,10.152h5.616c-0.072-4.104-1.729-7.992-4.393-10.873
				C276.068,312.686,274.412,311.533,272.468,310.669z"/>
			<radialGradient id="SVGID_14_" cx="200" cy="319.5254" r="82.1723" gradientUnits="userSpaceOnUse">
				<stop  offset="0" style="stop-color:#F29327"/>
				<stop  offset="1" style="stop-color:#E0B973"/>
			</radialGradient>
			<path fill="url(#SVGID_14_)" d="M300.834,311.029c2.089-2.017,4.608-3.024,7.489-3.024c2.088,0,3.456,0.36,5.4,1.152
				l-0.576,1.368c-1.584-0.648-3.168-1.008-4.824-1.008c-3.385,0-5.761,2.447-6.625,4.68c-0.576,1.656-0.864,3.889-0.864,6.697V343
				h-8.137v-34.562h8.137V311.029z M299.395,341.56v-31.683h-5.257v31.683H299.395z"/>
		</g>
	</g>
</g>
</svg>
